<svg xmlns="http://www.w3.org/2000/svg">
   <symbol id="logo" viewBox="0 0 81 24">
      <path d="M10.15 1.76007H14.02L23.26 23.0001H17.98L16.15 18.5001H7.89997L6.12997 23.0001H0.969971L10.15 1.76007ZM11.95 7.94007L9.36997 14.5401H14.56L11.95 7.94007Z" />
      <path d="M24.8863 0.320068H29.3863V23.0001H24.8863V0.320068Z"/>
      <path d="M32.6793 8.42007H37.1793V23.0001H32.6793V8.42007ZM32.3193 3.83007C32.3193 3.11007 32.5693 2.50007 33.0693 2.00007C33.5893 1.48007 34.2093 1.22007 34.9293 1.22007C35.6493 1.22007 36.2593 1.48007 36.7593 2.00007C37.2793 2.50007 37.5393 3.11007 37.5393 3.83007C37.5393 4.55007 37.2793 5.17007 36.7593 5.69007C36.2593 6.19007 35.6493 6.44007 34.9293 6.44007C34.2093 6.44007 33.5893 6.19007 33.0693 5.69007C32.5693 5.17007 32.3193 4.55007 32.3193 3.83007Z" />
      <path d="M38.8822 8.42007H43.7422L47.4322 18.3201H47.4922L50.9122 8.42007H55.4422L49.6822 23.0001H44.9122L38.8822 8.42007Z"/>
      <path d="M57.1422 8.42007H61.6422V23.0001H57.1422V8.42007ZM56.7822 3.83007C56.7822 3.11007 57.0322 2.50007 57.5322 2.00007C58.0522 1.48007 58.6722 1.22007 59.3922 1.22007C60.1122 1.22007 60.7222 1.48007 61.2222 2.00007C61.7422 2.50007 62.0022 3.11007 62.0022 3.83007C62.0022 4.55007 61.7422 5.17007 61.2222 5.69007C60.7222 6.19007 60.1122 6.44007 59.3922 6.44007C58.6722 6.44007 58.0522 6.19007 57.5322 5.69007C57.0322 5.17007 56.7822 4.55007 56.7822 3.83007Z" />
      <path d="M64.3351 15.7101C64.3351 14.5501 64.5451 13.5001 64.9651 12.5601C65.3851 11.6201 65.9551 10.8201 66.6751 10.1601C67.4151 9.48007 68.2751 8.96007 69.2551 8.60007C70.2551 8.24007 71.3151 8.06007 72.4351 8.06007C73.5551 8.06007 74.6051 8.24007 75.5851 8.60007C76.5851 8.96007 77.4451 9.48007 78.1651 10.1601C78.9051 10.8201 79.4851 11.6201 79.9051 12.5601C80.3251 13.5001 80.5351 14.5501 80.5351 15.7101C80.5351 16.8701 80.3251 17.9201 79.9051 18.8601C79.4851 19.8001 78.9051 20.6101 78.1651 21.2901C77.4451 21.9501 76.5851 22.4601 75.5851 22.8201C74.6051 23.1801 73.5551 23.3601 72.4351 23.3601C71.3151 23.3601 70.2551 23.1801 69.2551 22.8201C68.2751 22.4601 67.4151 21.9501 66.6751 21.2901C65.9551 20.6101 65.3851 19.8001 64.9651 18.8601C64.5451 17.9201 64.3351 16.8701 64.3351 15.7101ZM68.8351 15.7101C68.8351 16.8101 69.1451 17.7001 69.7651 18.3801C70.4051 19.0601 71.2951 19.4001 72.4351 19.4001C73.5751 19.4001 74.4551 19.0601 75.0751 18.3801C75.7151 17.7001 76.0351 16.8101 76.0351 15.7101C76.0351 14.6101 75.7151 13.7201 75.0751 13.0401C74.4551 12.3601 73.5751 12.0201 72.4351 12.0201C71.2951 12.0201 70.4051 12.3601 69.7651 13.0401C69.1451 13.7201 68.8351 14.6101 68.8351 15.7101Z"/>
   </symbol>
   <symbol id="video" viewBox="0 0 82 82">
      <path d="M41.3715 0.407043C19.0808 0.407043 0.948334 18.5413 0.948334 40.8302C0.948334 63.1192 19.0808 81.2534 41.3715 81.2534C63.6622 81.2534 81.7947 63.1192 81.7947 40.8302C81.7947 18.5413 63.6622 0.407043 41.3715 0.407043ZM41.3715 77.8849C20.9395 77.8849 4.31688 61.2623 4.31688 40.8302C4.31688 20.3982 20.9395 3.77559 41.3715 3.77559C61.8036 3.77559 78.4262 20.3982 78.4262 40.8302C78.4262 61.2623 61.8036 77.8849 41.3715 77.8849Z"/>
      <path d="M57.4419 39.414L33.8618 24.2553C33.3453 23.9182 32.6775 23.9 32.1446 24.1928C31.6017 24.4889 31.2662 25.0548 31.2662 25.6715V55.9889C31.2662 56.6057 31.6017 57.1716 32.1446 57.4677C32.3946 57.6043 32.6742 57.6733 32.9505 57.6733C33.2663 57.6733 33.5855 57.5844 33.8618 57.4052L57.4419 42.2465C57.9223 41.9373 58.215 41.4026 58.215 40.8302C58.215 40.2578 57.9223 39.7233 57.4419 39.414ZM34.6347 52.9032V28.7573L53.4154 40.8302L34.6347 52.9032Z"/>
   </symbol>
   <symbol id="facebook" viewBox="0 0 13 25">
      <path fill-rule="evenodd" clip-rule="evenodd" d="M11.6487 5.00679C11.0026 4.81806 10.2595 4.69224 9.58112 4.69224C8.74118 4.69224 6.93208 5.22698 6.93208 6.265V8.74997H11.2287V12.9335H6.93208V24.4776H2.60316V12.9335H0.471008V8.74997H2.60316V6.64247C2.60316 3.46548 4.08921 0.823242 7.67511 0.823242C8.90271 0.823242 11.0995 0.886153 12.2948 1.29507L11.6487 5.00679Z"/>
   </symbol>
   <symbol id="instagram" viewBox="0 0 33 30">
      <path d="M28.0818 0.0952148H5.24532C2.6368 0.0952148 0.514015 2.05527 0.514015 4.46384V25.5497C0.514015 27.9589 2.6368 29.9183 5.24532 29.9183H28.0818C30.6909 29.9183 32.8131 27.9589 32.8131 25.5497V4.46384C32.8131 2.05527 30.6909 0.0952148 28.0818 0.0952148ZM30.9206 25.5497C30.9206 26.9949 29.6469 28.1709 28.0818 28.1709H5.24532C3.68021 28.1709 2.40654 26.9949 2.40654 25.5497V4.46384C2.40654 3.0187 3.68021 1.84266 5.24532 1.84266H28.0818C29.6469 1.84266 30.9206 3.0187 30.9206 4.46384V25.5497Z" />
      <path d="M27.0724 3.64844C26.029 3.64844 25.1799 4.43246 25.1799 5.39589C25.1799 6.35931 26.029 7.14334 27.0724 7.14334C28.1158 7.14334 28.9649 6.35931 28.9649 5.39589C28.9649 4.43246 28.1158 3.64844 27.0724 3.64844Z" />
      <path d="M16.6635 7.14331C11.9676 7.14331 8.14719 10.6708 8.14719 15.0068C8.14719 19.3428 11.9676 22.8704 16.6635 22.8704C21.3595 22.8704 25.1799 19.3428 25.1799 15.0068C25.1799 10.6708 21.3595 7.14331 16.6635 7.14331ZM16.6635 21.1229C13.011 21.1229 10.0397 18.3794 10.0397 15.0068C10.0397 11.6343 13.011 8.89076 16.6635 8.89076C20.3161 8.89076 23.2874 11.6343 23.2874 15.0068C23.2874 18.3794 20.3161 21.1229 16.6635 21.1229Z" />
   </symbol>
   <symbol id="twitter" viewBox="0 0 34 26"> 
      <path d="M33.0654 3.69185C31.8643 4.17834 30.5844 4.50081 29.2501 4.65738C30.6228 3.90062 31.6705 2.71142 32.1631 1.27804C30.8832 1.98262 29.4701 2.48029 27.9642 2.75802C26.7489 1.56323 25.0169 0.823242 23.1274 0.823242C19.4615 0.823242 16.5101 3.5707 16.5101 6.93885C16.5101 7.42347 16.5545 7.88946 16.6636 8.33308C11.1586 8.08517 6.28748 5.649 3.01518 1.93788C2.44389 2.85308 2.10879 3.90062 2.10879 5.0283C2.10879 7.14575 3.28972 9.02274 5.05002 10.1094C3.98617 10.0908 2.94251 9.8056 2.05832 9.35639C2.05832 9.37502 2.05832 9.39926 2.05832 9.42349C2.05832 12.3946 4.35357 14.8625 7.36344 15.431C6.82445 15.5671 6.23701 15.6323 5.62737 15.6323C5.20344 15.6323 4.77548 15.6099 4.37376 15.5279C5.2317 17.9492 7.66625 19.7292 10.561 19.787C8.30819 21.4142 5.4477 22.3947 2.35103 22.3947C1.808 22.3947 1.28718 22.3723 0.766357 22.3108C3.69952 24.0573 7.1757 25.0545 10.9244 25.0545C23.1092 25.0545 29.7709 15.7348 29.7709 7.65647C29.7709 7.38619 29.7608 7.12524 29.7467 6.86615C31.0609 6.00501 32.1651 4.92951 33.0654 3.69185Z" />
   </symbol>
   <symbol id="googleIcon" viewBox="0 0 41 39">
      <g clip-path="url(#clip0_2_33)">
      <path d="M23.5476 19.4522L3.27283 37.4788C2.32339 36.8797 1.75969 35.8832 1.76966 34.8214V4.08296C1.75969 3.0212 2.32339 2.02465 3.27283 1.42554L23.5476 19.4522Z" fill="#2196F3"/>
      <path d="M30.642 13.1557L23.5476 19.4523L3.27286 1.42566C3.34925 1.371 3.42882 1.32014 3.51114 1.27333C4.58268 0.673654 5.92113 0.654295 7.01252 1.22255L30.642 13.1557Z" fill="#4CAF50"/>
      <path d="M39.2396 19.4524C39.2528 20.651 38.5474 21.7582 37.4064 22.3299L30.642 25.749L23.5477 19.4524L30.642 13.1558L37.4064 16.5749C38.5474 17.1466 39.2528 18.2538 39.2396 19.4524Z" fill="#F0BB1F"/>
      <path d="M30.642 25.749L7.01252 37.6822C5.91872 38.2416 4.58535 38.2222 3.51114 37.6314C3.42882 37.5846 3.34925 37.5337 3.27286 37.479L23.5477 19.4524L30.642 25.749Z" fill="#F15A2B"/>
      </g>
      <defs>
      <clipPath id="clip0_2_33">
      <rect width="40.3738" height="37.2789" fill="white" transform="translate(0.317749 0.80957)"/>
      </clipPath>
      </defs>
   </symbol>
   <symbol id="googleText" viewBox="0 0 109 28">
      <path d="M11.9456 4.90581H6.27716V6.99343H9.29712C8.89338 7.9925 7.90826 8.60388 6.40635 8.60388C4.21002 8.60388 2.85346 7.30657 2.85346 5.5321C2.85346 3.69797 4.27462 2.40067 6.18026 2.40067C7.45607 2.40067 8.47349 2.93748 8.94183 3.62342L11.1382 2.46031C10.1853 1.05863 8.36045 0.0744629 6.19641 0.0744629C2.86961 0.0744629 0.269531 2.49014 0.269531 5.51718C0.269531 8.51441 2.82116 10.9301 6.37405 10.9301C9.53936 10.9301 11.9456 8.99158 11.9456 5.8005V4.90581Z" fill="white"/>
      <path d="M15.1788 8.42494V6.57591H19.2162V4.30935H15.1788V2.57961H19.62V0.283225H12.5949V10.7213H19.7007V8.42494H15.1788Z" fill="white"/>
      <path d="M27.9414 0.283225H19.5436V2.57961H22.4505V10.7213H25.0345V2.57961H27.9414V0.283225Z" fill="white"/>
      <path d="M31.4949 0.283225V10.7213H34.0788V0.283225H31.4949Z" fill="white"/>
      <path d="M42.804 0.283225H34.4062V2.57961H37.3132V10.7213H39.8971V2.57961H42.804V0.283225Z" fill="white"/>
      <path d="M51.7515 10.9301C54.9975 10.9301 57.6299 8.57406 57.6299 5.50227C57.6299 2.43049 54.9975 0.0744629 51.7515 0.0744629C48.5054 0.0744629 45.873 2.43049 45.873 5.50227C45.873 8.57406 48.5054 10.9301 51.7515 10.9301ZM51.7515 8.60388C49.9104 8.60388 48.457 7.36622 48.457 5.50227C48.457 3.63833 49.9104 2.40067 51.7515 2.40067C53.5925 2.40067 55.046 3.63833 55.046 5.50227C55.046 7.36622 53.5925 8.60388 51.7515 8.60388Z" fill="white"/>
      <path d="M64.5756 0.283225V5.94962L60.2152 0.283225H58.2773V10.7213H60.8612V5.05493L65.2216 10.7213H67.1595V0.283225H64.5756Z" fill="white"/>
      <path d="M11.9456 22.6357V23.0383C11.9456 24.3405 11.445 25.439 10.4437 26.3337C9.44247 27.2185 8.12359 27.6609 6.4871 27.6609C4.76448 27.6609 3.34333 27.1439 2.22362 26.1101C1.10392 25.0662 0.544073 23.7888 0.544073 22.2778C0.544073 20.7667 1.09854 19.4943 2.20748 18.4604C3.31641 17.4166 4.72142 16.8947 6.4225 16.8947C7.45607 16.8947 8.40351 17.1234 9.26482 17.5806C10.1369 18.0379 10.8098 18.6493 11.2835 19.4148L10.5245 19.8323C10.1477 19.1762 9.58781 18.6493 8.84493 18.2517C8.11282 17.854 7.30534 17.6552 6.4225 17.6552C4.95828 17.6552 3.75245 18.1025 2.80501 18.9972C1.86834 19.882 1.4 20.9755 1.4 22.2778C1.4 23.5801 1.87372 24.6785 2.82116 25.5732C3.7686 26.458 4.99058 26.9004 6.4871 26.9004C7.81136 26.9004 8.88262 26.5673 9.70086 25.9013C10.5191 25.2352 10.9767 24.3952 11.0736 23.3812H6.27716V22.6357H11.9456Z" fill="white"/>
      <path d="M23.409 26.0951C22.2786 27.139 20.9005 27.6609 19.2748 27.6609C17.649 27.6609 16.2709 27.139 15.1405 26.0951C14.01 25.0414 13.4448 23.7689 13.4448 22.2778C13.4448 20.7866 14.01 19.5191 15.1405 18.4753C16.2709 17.4216 17.649 16.8947 19.2748 16.8947C20.9005 16.8947 22.2786 17.4216 23.409 18.4753C24.5395 19.5191 25.1047 20.7866 25.1047 22.2778C25.1047 23.7689 24.5395 25.0414 23.409 26.0951ZM15.738 25.5583C16.707 26.453 17.8859 26.9004 19.2748 26.9004C20.6636 26.9004 21.8371 26.453 22.7954 25.5583C23.7643 24.6537 24.2488 23.5602 24.2488 22.2778C24.2488 20.9954 23.7643 19.9068 22.7954 19.0121C21.8371 18.1075 20.6636 17.6552 19.2748 17.6552C17.8859 17.6552 16.707 18.1075 15.738 19.0121C14.7798 19.9068 14.3007 20.9954 14.3007 22.2778C14.3007 23.5602 14.7798 24.6537 15.738 25.5583Z" fill="white"/>
      <path d="M36.5936 26.0951C35.4631 27.139 34.0851 27.6609 32.4593 27.6609C30.8336 27.6609 29.4555 27.139 28.3251 26.0951C27.1946 25.0414 26.6294 23.7689 26.6294 22.2778C26.6294 20.7866 27.1946 19.5191 28.3251 18.4753C29.4555 17.4216 30.8336 16.8947 32.4593 16.8947C34.0851 16.8947 35.4631 17.4216 36.5936 18.4753C37.7241 19.5191 38.2893 20.7866 38.2893 22.2778C38.2893 23.7689 37.7241 25.0414 36.5936 26.0951ZM28.9226 25.5583C29.8916 26.453 31.0705 26.9004 32.4593 26.9004C33.8482 26.9004 35.0217 26.453 35.9799 25.5583C36.9489 24.6537 37.4334 23.5602 37.4334 22.2778C37.4334 20.9954 36.9489 19.9068 35.9799 19.0121C35.0217 18.1075 33.8482 17.6552 32.4593 17.6552C31.0705 17.6552 29.8916 18.1075 28.9226 19.0121C27.9644 19.9068 27.4853 20.9954 27.4853 22.2778C27.4853 23.5602 27.9644 24.6537 28.9226 25.5583Z" fill="white"/>
      <path d="M51.2155 22.6357V23.0383C51.2155 24.3405 50.7149 25.439 49.7136 26.3337C48.7123 27.2185 47.3934 27.6609 45.757 27.6609C44.0343 27.6609 42.6132 27.1439 41.4935 26.1101C40.3738 25.0662 39.8139 23.7888 39.8139 22.2778C39.8139 20.7667 40.3684 19.4943 41.4773 18.4604C42.5863 17.4166 43.9913 16.8947 45.6924 16.8947C46.7259 16.8947 47.6734 17.1234 48.5347 17.5806C49.4068 18.0379 50.0797 18.6493 50.5534 19.4148L49.7943 19.8323C49.4175 19.1762 48.8577 18.6493 48.1148 18.2517C47.3827 17.854 46.5752 17.6552 45.6924 17.6552C44.2281 17.6552 43.0223 18.1025 42.0749 18.9972C41.1382 19.882 40.6699 20.9755 40.6699 22.2778C40.6699 23.5801 41.1436 24.6785 42.091 25.5732C43.0385 26.458 44.2604 26.9004 45.757 26.9004C47.0812 26.9004 48.1525 26.5673 48.9707 25.9013C49.789 25.2352 50.2465 24.3952 50.3434 23.3812H45.547V22.6357H51.2155Z" fill="white"/>
      <path d="M54.2165 26.7513H59.5459V27.4968H53.3606V17.0587H54.2165V26.7513Z" fill="white"/>
      <path d="M62.1809 26.7513H67.8332V27.4968H61.325V17.0587H67.7525V17.8043H62.1809V21.8603H67.3488V22.6058H62.1809V26.7513Z" fill="white"/>
      <path d="M78.085 17.0587C79.0971 17.0587 79.9369 17.3669 80.6044 17.9833C81.2719 18.5996 81.6056 19.37 81.6056 20.2945C81.6056 21.2191 81.2719 21.9895 80.6044 22.6058C79.9369 23.2122 79.0971 23.5154 78.085 23.5154H75.0974V27.4968H74.2415V17.0587H78.085ZM78.085 22.7699C78.8602 22.7699 79.4954 22.5363 79.9907 22.069C80.4967 21.6018 80.7497 21.0103 80.7497 20.2945C80.7497 19.5688 80.4967 18.9724 79.9907 18.5052C79.4954 18.0379 78.8602 17.8043 78.085 17.8043H75.0974V22.7699H78.085Z" fill="white"/>
      <path d="M84.5758 26.7513H89.9051V27.4968H83.7198V17.0587H84.5758V26.7513Z" fill="white"/>
      <path d="M99.6061 27.4968L98.5079 24.8426H92.8394L91.7412 27.4968H90.8369L95.2295 17.0587H96.1339L100.51 27.4968H99.6061ZM93.1624 24.097H98.201L95.6817 18.028L93.1624 24.097Z" fill="white"/>
      <path d="M108.554 17.0587L104.436 23.2023V27.4968H103.58V23.2023L99.4617 17.0587H100.431L104.016 22.4418L107.585 17.0587H108.554Z" fill="white"/>
   </symbol>
   <symbol id="appleIcon" viewBox="0 0 27 31">
      <path d="M9.11664 30.4962C4.30957 30.4706 0.333252 21.41 0.333252 16.7956C0.333252 9.25808 6.45714 7.6079 8.81725 7.6079C9.88084 7.6079 11.0165 7.99356 12.0183 8.33484C12.7187 8.5729 13.4432 8.81865 13.8461 8.81865C14.0873 8.81865 14.6556 8.6096 15.1574 8.42617C16.2275 8.03282 17.5591 7.54395 19.1097 7.54395C19.1124 7.54395 19.1162 7.54395 19.1189 7.54395C20.2767 7.54395 23.7874 7.77857 25.898 10.7052L26.3924 11.3912L25.6808 11.8869C24.6644 12.5951 22.8097 13.887 22.8097 16.4459C22.8097 19.4766 24.9101 20.6421 25.9192 21.2027C26.3647 21.4501 26.8257 21.7053 26.8257 22.2633C26.8257 22.6276 23.6765 30.451 19.1032 30.451C17.9841 30.451 17.1931 30.1404 16.4954 29.8666C15.7894 29.5892 15.1804 29.3504 14.1741 29.3504C13.664 29.3504 13.019 29.573 12.3361 29.8094C11.4029 30.131 10.3466 30.4962 9.14806 30.4962H9.11664Z" fill="white"/>
      <path d="M19.5942 0.673584C19.7133 4.6389 16.642 7.38985 13.5744 7.21731C13.0689 4.05286 16.6416 0.673584 19.5942 0.673584Z" fill="white"/>
   </symbol>
   <symbol id="appleText" viewBox="0 0 111 34">
      <path d="M6.92041 8.99343H9.04003L6.15734 1.16486H3.68646L0.803772 8.99343H2.9234L3.34732 7.76322H6.49648L6.92041 8.99343ZM3.92871 6.08567L4.9219 3.21147L5.9151 6.08567H3.92871Z" fill="white"/>
      <path d="M13.3296 3.40159L12.07 6.94682L10.8103 3.40159H8.79968L11.0404 8.99343H13.0995L15.3402 3.40159H13.3296Z" fill="white"/>
      <path d="M20.167 3.40159V3.92722C19.7673 3.50224 19.1738 3.24502 18.3623 3.24502C16.7756 3.24502 15.4675 4.53114 15.4675 6.19751C15.4675 7.86388 16.7756 9.15 18.3623 9.15C19.1738 9.15 19.7673 8.89277 20.167 8.46779V8.99343H21.9839V3.40159H20.167ZM18.7257 7.56192C17.8899 7.56192 17.2843 7.03628 17.2843 6.19751C17.2843 5.35873 17.8899 4.8331 18.7257 4.8331C19.5614 4.8331 20.167 5.35873 20.167 6.19751C20.167 7.03628 19.5614 7.56192 18.7257 7.56192Z" fill="white"/>
      <path d="M23.3168 8.99343H25.1336V0.829346H23.3168V8.99343Z" fill="white"/>
      <path d="M27.3715 2.90951C27.965 2.90951 28.4616 2.45098 28.4616 1.90298C28.4616 1.35498 27.965 0.896448 27.3715 0.896448C26.778 0.896448 26.2814 1.35498 26.2814 1.90298C26.2814 2.45098 26.778 2.90951 27.3715 2.90951ZM26.4631 8.99343H28.2799V3.40159H26.4631V8.99343Z" fill="white"/>
      <path d="M33.2309 3.24502C32.4194 3.24502 31.8259 3.50224 31.4262 3.92722V1.16486H29.6094V8.99343H31.4262V8.46779C31.8259 8.89277 32.4194 9.15 33.2309 9.15C34.8176 9.15 36.1257 7.86388 36.1257 6.19751C36.1257 4.53114 34.8176 3.24502 33.2309 3.24502ZM32.8676 7.56192C32.0318 7.56192 31.4262 7.03628 31.4262 6.19751C31.4262 5.35873 32.0318 4.8331 32.8676 4.8331C33.7033 4.8331 34.3089 5.35873 34.3089 6.19751C34.3089 7.03628 33.7033 7.56192 32.8676 7.56192Z" fill="white"/>
      <path d="M37.1558 8.99343H38.9727V0.829346H37.1558V8.99343Z" fill="white"/>
      <path d="M41.9252 6.86853H46.225C46.2734 6.65604 46.2977 6.43237 46.2977 6.19751C46.2977 4.50877 44.9896 3.24502 43.2212 3.24502C41.3075 3.24502 39.9994 4.53114 39.9994 6.19751C39.9994 7.86388 41.2832 9.15 43.3544 9.15C44.5051 9.15 45.4014 8.75857 45.9949 7.99808L44.5414 7.22641C44.2992 7.47245 43.8752 7.65139 43.3786 7.65139C42.7125 7.65139 42.1553 7.45008 41.9252 6.86853ZM41.8888 5.61596C42.0584 5.04559 42.5187 4.73245 43.2091 4.73245C43.7541 4.73245 44.2992 4.9673 44.493 5.61596H41.8888Z" fill="white"/>
      <path d="M53.2631 9.15C55.0436 9.15 56.4728 7.86388 56.4728 6.19751C56.4728 4.53114 55.0436 3.24502 53.2631 3.24502C51.4826 3.24502 50.0534 4.53114 50.0534 6.19751C50.0534 7.86388 51.4826 9.15 53.2631 9.15ZM53.2631 7.51718C52.4758 7.51718 51.8702 6.99155 51.8702 6.19751C51.8702 5.40347 52.4758 4.87784 53.2631 4.87784C54.0504 4.87784 54.656 5.40347 54.656 6.19751C54.656 6.99155 54.0504 7.51718 53.2631 7.51718Z" fill="white"/>
      <path d="M61.0493 3.24502C60.2499 3.24502 59.6443 3.51343 59.3173 3.92722V3.40159H57.5005V8.99343H59.3173V5.94028C59.3173 5.14624 59.7775 4.78837 60.4437 4.78837C61.0251 4.78837 61.4975 5.11269 61.4975 5.80608V8.99343H63.3143V5.56004C63.3143 4.05024 62.2726 3.24502 61.0493 3.24502Z" fill="white"/>
      <path d="M71.1388 5.01204V3.40159H69.8913V1.83588L68.0745 2.33914V3.40159H67.1055V5.01204H68.0745V6.99155C68.0745 8.55726 68.7649 9.2171 71.1388 8.99343V7.47245C70.3394 7.51718 69.8913 7.47245 69.8913 6.99155V5.01204H71.1388Z" fill="white"/>
      <path d="M75.7164 3.24502C74.917 3.24502 74.3114 3.51343 73.9843 3.92722V1.16486H72.1675V8.99343H73.9843V5.94028C73.9843 5.14624 74.4446 4.78837 75.1108 4.78837C75.6921 4.78837 76.1645 5.11269 76.1645 5.80608V8.99343H77.9813V5.56004C77.9813 4.05024 76.9397 3.24502 75.7164 3.24502Z" fill="white"/>
      <path d="M80.852 6.86853H85.1518C85.2003 6.65604 85.2245 6.43237 85.2245 6.19751C85.2245 4.50877 83.9164 3.24502 82.148 3.24502C80.2343 3.24502 78.9262 4.53114 78.9262 6.19751C78.9262 7.86388 80.2101 9.15 82.2812 9.15C83.4319 9.15 84.3282 8.75857 84.9217 7.99808L83.4682 7.22641C83.226 7.47245 82.8021 7.65139 82.3055 7.65139C81.6393 7.65139 81.0821 7.45008 80.852 6.86853ZM80.8157 5.61596C80.9853 5.04559 81.4455 4.73245 82.1359 4.73245C82.681 4.73245 83.226 4.9673 83.4198 5.61596H80.8157Z" fill="white"/>
      <path d="M10.9982 29.4968H14.5309L9.72639 16.4492H5.60826L0.803772 29.4968H4.33648L5.04302 27.4465H10.2916L10.9982 29.4968ZM6.012 24.6506L7.66732 19.8602L9.32265 24.6506H6.012Z" fill="white"/>
      <path d="M21.6707 19.9161C20.3182 19.9161 19.3291 20.3449 18.6629 21.0532V20.1771H15.6348V33.2247H18.6629V28.6208C19.3291 29.3291 20.3182 29.7578 21.6707 29.7578C24.3152 29.7578 26.4954 27.6142 26.4954 24.837C26.4954 22.0597 24.3152 19.9161 21.6707 19.9161ZM21.0651 27.111C19.6722 27.111 18.6629 26.2349 18.6629 24.837C18.6629 23.439 19.6722 22.563 21.0651 22.563C22.458 22.563 23.4674 23.439 23.4674 24.837C23.4674 26.2349 22.458 27.111 21.0651 27.111Z" fill="white"/>
      <path d="M34.2481 19.9161C32.8956 19.9161 31.9064 20.3449 31.2403 21.0532V20.1771H28.2122V33.2247H31.2403V28.6208C31.9064 29.3291 32.8956 29.7578 34.2481 29.7578C36.8926 29.7578 39.0728 27.6142 39.0728 24.837C39.0728 22.0597 36.8926 19.9161 34.2481 19.9161ZM33.6425 27.111C32.2496 27.111 31.2403 26.2349 31.2403 24.837C31.2403 23.439 32.2496 22.563 33.6425 22.563C35.0354 22.563 36.0448 23.439 36.0448 24.837C36.0448 26.2349 35.0354 27.111 33.6425 27.111Z" fill="white"/>
      <path d="M40.7896 29.4968H43.8177V15.89H40.7896V29.4968Z" fill="white"/>
      <path d="M48.7385 25.9553H55.9049C55.9857 25.6012 56.026 25.2284 56.026 24.837C56.026 22.0224 53.8458 19.9161 50.8985 19.9161C47.709 19.9161 45.5288 22.0597 45.5288 24.837C45.5288 27.6142 47.6686 29.7578 51.1206 29.7578C53.0384 29.7578 54.5322 29.1054 55.5214 27.8379L53.0989 26.5518C52.6952 26.9619 51.9886 27.2601 51.161 27.2601C50.0507 27.2601 49.1221 26.9246 48.7385 25.9553ZM48.678 23.8677C48.9606 22.9171 49.7277 22.3952 50.8784 22.3952C51.7868 22.3952 52.6952 22.7866 53.0182 23.8677H48.678Z" fill="white"/>
      <path d="M67.8369 29.7578C70.9054 29.7578 73.0855 28.2666 73.0855 25.7503C73.0855 22.9917 70.6833 22.302 68.5435 21.7055C66.3431 21.0904 65.9999 20.6804 65.9999 20.0839C65.9999 19.562 66.5046 19.096 67.514 19.096C68.8059 19.096 69.4721 19.6738 69.9566 20.6058L72.6818 19.1333C71.6523 17.2134 69.8354 16.1883 67.514 16.1883C65.0713 16.1883 62.77 17.6421 62.77 20.1585C62.77 22.6561 64.8291 23.5881 66.9285 24.1287C69.0482 24.6692 69.8556 24.9861 69.8556 25.7876C69.8556 26.2908 69.4721 26.85 67.9379 26.85C66.3431 26.85 65.4751 26.1231 64.9704 25.042L62.1846 26.5332C62.9719 28.453 64.8695 29.7578 67.8369 29.7578Z" fill="white"/>
      <path d="M80.2178 22.8612V20.1771H78.1386V17.5676L75.1105 18.4064V20.1771H73.4956V22.8612H75.1105V26.1604C75.1105 28.7699 76.2612 29.8696 80.2178 29.4968V26.9619C78.8855 27.0364 78.1386 26.9619 78.1386 26.1604V22.8612H80.2178Z" fill="white"/>
      <path d="M86.58 29.7578C89.5475 29.7578 91.9296 27.6142 91.9296 24.837C91.9296 22.0597 89.5475 19.9161 86.58 19.9161C83.6125 19.9161 81.2305 22.0597 81.2305 24.837C81.2305 27.6142 83.6125 29.7578 86.58 29.7578ZM86.58 27.0364C85.2679 27.0364 84.2585 26.1604 84.2585 24.837C84.2585 23.5136 85.2679 22.6375 86.58 22.6375C87.8922 22.6375 88.9015 23.5136 88.9015 24.837C88.9015 26.1604 87.8922 27.0364 86.58 27.0364Z" fill="white"/>
      <path d="M96.6703 21.836V20.1771H93.6423V29.4968H96.6703V25.2843C96.6703 23.439 98.4468 22.973 99.6984 23.1594V19.9907C98.4266 19.9907 97.0741 20.5872 96.6703 21.836Z" fill="white"/>
      <path d="M103.523 25.9553H110.69C110.77 25.6012 110.811 25.2284 110.811 24.837C110.811 22.0224 108.63 19.9161 105.683 19.9161C102.494 19.9161 100.313 22.0597 100.313 24.837C100.313 27.6142 102.453 29.7578 105.905 29.7578C107.823 29.7578 109.317 29.1054 110.306 27.8379L107.884 26.5518C107.48 26.9619 106.773 27.2601 105.946 27.2601C104.835 27.2601 103.907 26.9246 103.523 25.9553ZM103.463 23.8677C103.745 22.9171 104.512 22.3952 105.663 22.3952C106.571 22.3952 107.48 22.7866 107.803 23.8677H103.463Z" fill="white"/>
   </symbol>
</svg>